<?xml version="1.0" encoding="utf-8"?>
<!-- Generator: Adobe Illustrator 24.3.0, SVG Export Plug-In . SVG Version: 6.00 Build 0)  -->
<svg version="1.1" id="Layer_1" xmlns="http://www.w3.org/2000/svg" xmlns:xlink="http://www.w3.org/1999/xlink" x="0px" y="0px"
	 viewBox="0 0 53 53" style="enable-background:new 0 0 53 53;" xml:space="preserve">
<style type="text/css">
	.st0{fill:#4BC2DE;}
	.st1{fill:#13A6CB;}
	.st2{fill:#FFFFFF;}
	.st3{fill:#D0D1D3;}
	.st4{fill:#D72449;}
	.st5{fill:#A11D38;}
	.st6{fill:none;}
	.st7{fill:none;stroke:#FFFFFF;}
</style>
<g id="Group_119" transform="translate(1.445 1.445)">
	<g id="Group_88" transform="translate(1.053 1.369)">
		<circle id="Ellipse_12" class="st0" cx="23.9" cy="23.6" r="25.5"/>
		<path id="Path_116" class="st1" d="M42.3,41.1c2.7-2.7,4.8-6,6.1-9.6L25.8,8.9l-7.4,18.3l-4.8,8.9L26,48.6
			C32.2,48.1,38,45.5,42.3,41.1z"/>
		<path id="Path_117" class="st2" d="M12.7,33.3c0.8-5.1,2.3-10.1,4.6-14.8c0.5-1,0.5-2.1,0.2-3.1l-1.8-5.4
			c-0.2-0.6,0.1-1.3,0.7-1.5c0.1,0,0.2-0.1,0.4-0.1H25c0.6,0,1.2,0.5,1.2,1.2c0,0.1,0,0.3-0.1,0.4l-1.8,5.4c-0.3,1-0.3,2.1,0.2,3.1
			c2.2,4.7,3.8,9.6,4.6,14.8c0.3,1.8-1,3.6-2.8,3.8c-0.2,0-0.3,0-0.5,0H16c-1.9,0-3.4-1.5-3.4-3.4C12.6,33.6,12.6,33.5,12.7,33.3z"
			/>
		<path id="Path_118" class="st3" d="M29,33.3c-0.8-5.1-2.3-10.1-4.6-14.8c-0.5-1-0.5-2.1-0.2-3.1l1.8-5.4c0.2-0.6-0.1-1.3-0.7-1.5
			c-0.1,0-0.2-0.1-0.4-0.1h-4v28.7h4.8c1.9,0,3.4-1.5,3.4-3.4C29.1,33.6,29.1,33.5,29,33.3z"/>
		<path id="Path_119" class="st4" d="M30.6,37.2h-3.2c-1.1,0-2.1-1.1-2.6-2.9l-1.4-5.2h11.3l-1.5,5.2C32.7,36.1,31.7,37.2,30.6,37.2
			z"/>
		<path id="Path_120" class="st5" d="M29,29.1v8.1h1.6c1.1,0,2.1-1.1,2.6-2.9l1.4-5.2L29,29.1z"/>
	</g>
</g>
<ellipse class="st6" cx="26.5" cy="26.5" rx="26.2" ry="26.2"/>
<ellipse class="st7" cx="26.5" cy="26.5" rx="25.4" ry="25.4"/>
</svg>
