<svg xmlns="http://www.w3.org/2000/svg" viewBox="0 0 297.95 291.33"><defs><style>.cls-1{fill:#bcbec0;}.cls-2{fill:#fff;}.cls-3{fill:#ed1c24;}.cls-4{fill:#be1e2d;}.cls-5{fill:#231f20;}.cls-6{fill:#8c8c8c;}.cls-7{fill:#989fc1;}.cls-8{fill:#fefefe;}.cls-9{fill:#393939;}.cls-10{fill:#979ec0;}.cls-11{fill:#343434;}.cls-12{fill:#141414;}.cls-13{fill:#7077a1;}.cls-14{fill:#3c3c3b;}</style></defs><g id="Layer_2" data-name="Layer 2"><g id="Layer_1-2" data-name="Layer 1"><rect class="cls-1" x="212.46" y="105.95" width="15.14" height="15.14"/><polygon class="cls-2" points="166.9 136.24 151.75 136.24 136.55 136.24 121.4 136.24 106.2 136.24 91.05 136.24 91.05 151.39 91.05 166.53 91.05 181.68 106.2 181.68 106.2 196.82 121.4 196.82 136.55 196.82 151.75 196.82 166.9 196.82 182.1 196.82 182.1 181.68 182.1 166.53 182.1 151.39 182.1 136.24 166.9 136.24"/><polygon class="cls-1" points="166.9 121.1 151.75 121.1 136.55 121.1 136.55 105.95 121.4 105.95 121.4 121.1 106.2 121.1 91.05 121.1 75.91 121.1 75.91 136.24 75.91 151.39 75.91 166.53 75.91 181.68 75.91 196.82 91.05 196.82 106.2 196.82 106.2 181.68 91.05 181.68 91.05 166.53 91.05 151.39 91.05 136.24 106.2 136.24 121.4 136.24 136.55 136.24 151.75 136.24 166.9 136.24 182.1 136.24 182.1 121.1 166.9 121.1"/><polygon class="cls-1" points="121.4 211.97 136.55 211.97 151.75 211.97 151.75 196.82 136.55 196.82 121.4 196.82 106.2 196.82 106.2 211.97 121.4 211.97"/><polygon class="cls-2" points="227.6 90.81 227.6 75.66 212.46 75.66 212.46 90.81 197.25 90.81 197.25 105.95 212.46 105.95 227.6 105.95 242.81 105.95 242.81 90.81 227.6 90.81"/><polygon class="cls-2" points="151.75 30.23 151.75 45.37 166.9 45.37 166.9 60.52 182.1 60.52 182.1 45.37 182.1 30.23 166.9 30.23 151.75 30.23"/><polygon class="cls-2" points="136.55 75.66 121.4 75.66 121.4 90.81 106.2 90.81 106.2 105.95 121.4 105.95 136.55 105.95 151.75 105.95 151.75 90.81 136.55 90.81 136.55 75.66"/><rect class="cls-2" x="106.2" y="15.14" width="15.21" height="15.08"/><polygon class="cls-2" points="106.2 45.37 91.05 45.37 91.05 30.23 75.91 30.23 75.91 45.37 60.7 45.37 60.7 60.52 75.91 60.52 75.91 75.66 91.05 75.66 91.05 60.52 106.2 60.52 106.2 45.37"/><rect class="cls-3" x="227.6" y="75.66" width="15.21" height="15.14"/><polygon class="cls-3" points="212.46 60.52 212.46 45.37 197.25 45.37 182.1 45.37 182.1 60.52 166.9 60.52 166.9 45.37 151.75 45.37 151.75 30.23 151.75 15.14 136.55 15.14 121.4 15.14 121.4 30.23 106.2 30.23 91.05 30.23 91.05 45.37 106.2 45.37 106.2 60.52 91.05 60.52 91.05 75.66 75.91 75.66 75.91 60.52 60.7 60.52 60.7 45.37 45.56 45.37 45.56 60.52 45.56 75.66 60.7 75.66 60.7 90.81 75.91 90.81 75.91 105.95 91.05 105.95 106.2 105.95 106.2 90.81 121.4 90.81 121.4 75.66 136.55 75.66 136.55 90.81 151.75 90.81 151.75 105.95 166.9 105.95 182.1 105.95 197.25 105.95 197.25 90.81 212.46 90.81 212.46 75.66 227.6 75.66 227.6 60.52 212.46 60.52"/><rect class="cls-1" x="30.35" y="105.95" width="15.21" height="15.14"/><rect class="cls-1" x="15.21" y="90.81" width="15.14" height="15.14"/><polygon class="cls-4" points="197.25 105.95 182.1 105.95 166.9 105.95 151.75 105.95 136.55 105.95 136.55 121.1 151.75 121.1 166.9 121.1 182.1 121.1 197.25 121.1 212.46 121.1 212.46 105.95 197.25 105.95"/><polygon class="cls-4" points="91.05 105.95 75.91 105.95 75.91 90.81 60.7 90.81 60.7 75.66 45.56 75.66 45.56 60.52 30.35 60.52 30.35 75.66 15.21 75.66 15.21 90.81 30.35 90.81 30.35 105.95 45.56 105.95 45.56 121.1 60.7 121.1 75.91 121.1 91.05 121.1 106.2 121.1 121.4 121.1 121.4 105.95 106.2 105.95 91.05 105.95"/><polygon class="cls-5" points="242.81 75.66 242.81 90.81 242.81 105.95 257.95 105.95 257.95 90.81 257.95 75.66 242.81 75.66"/><rect class="cls-5" x="227.6" y="105.95" width="15.21" height="15.14"/><rect class="cls-5" x="227.6" y="60.52" width="15.21" height="15.14"/><rect class="cls-5" x="212.46" y="45.37" width="15.14" height="15.14"/><polygon class="cls-5" points="197.25 121.1 182.1 121.1 182.1 136.24 182.1 151.39 182.1 166.53 182.1 181.68 182.1 196.82 197.25 196.82 197.25 181.68 197.25 166.53 197.25 151.39 197.25 136.24 212.46 136.24 227.6 136.24 227.6 121.1 212.46 121.1 197.25 121.1"/><polygon class="cls-5" points="197.25 45.37 212.46 45.37 212.46 30.23 197.25 30.23 182.1 30.23 182.1 45.37 197.25 45.37"/><polygon class="cls-5" points="151.75 196.82 151.75 211.97 166.9 211.97 182.1 211.97 182.1 196.82 166.9 196.82 151.75 196.82"/><polygon class="cls-5" points="166.9 30.23 182.1 30.23 182.1 15.14 166.9 15.14 151.75 15.14 151.75 30.23 166.9 30.23"/><polygon class="cls-5" points="121.4 211.97 106.2 211.97 106.2 227.11 121.4 227.11 136.55 227.11 151.75 227.11 151.75 211.97 136.55 211.97 121.4 211.97"/><polygon class="cls-5" points="136.55 15.14 151.75 15.14 151.75 0 136.55 0 121.4 0 106.2 0 106.2 15.14 121.4 15.14 136.55 15.14"/><polygon class="cls-5" points="91.05 196.82 75.91 196.82 75.91 211.97 91.05 211.97 106.2 211.97 106.2 196.82 91.05 196.82"/><polygon class="cls-5" points="106.2 30.23 106.2 15.14 91.05 15.14 75.91 15.14 75.91 30.23 91.05 30.23 106.2 30.23"/><polygon class="cls-5" points="75.91 166.53 75.91 151.39 75.91 136.24 75.91 121.1 60.7 121.1 45.56 121.1 30.35 121.1 30.35 136.24 45.56 136.24 60.7 136.24 60.7 151.39 60.7 166.53 60.7 181.68 60.7 196.82 75.91 196.82 75.91 181.68 75.91 166.53"/><polygon class="cls-5" points="75.91 45.37 75.91 30.23 60.7 30.23 45.56 30.23 45.56 45.37 60.7 45.37 75.91 45.37"/><rect class="cls-5" x="30.35" y="45.37" width="15.21" height="15.14"/><rect class="cls-5" x="15.21" y="105.95" width="15.14" height="15.14"/><rect class="cls-5" x="15.21" y="60.52" width="15.14" height="15.14"/><polygon class="cls-5" points="15.21 75.66 0 75.66 0 90.81 0 105.95 15.21 105.95 15.21 90.81 15.21 75.66"/><polygon class="cls-5" points="99.25 135.72 99.25 150.92 114.39 150.92 114.39 135.72 114.39 120.57 99.25 120.57 99.25 135.72"/><polygon class="cls-5" points="145.68 120.57 145.68 135.72 145.68 150.92 160.82 150.92 160.82 135.72 160.82 120.57 145.68 120.57"/><g id="p69wE6.tif"><path class="cls-6" d="M208.63,229.35q.08-6.47.13-12.94c0-.6.26-.69.76-.68,1.78,0,3.57,0,5.35,0,.65,0,.8-.21.8-.82,0-4,0-8,0-12,0-.76.22-1,1-1,1.63,0,3.26,0,4.89,0,.8,0,1-.24,1-1,0-6.16,0-12.32,0-18.48,0-.82.19-1.09,1-1,1.63.07,3.26,0,4.89,0,.7,0,.85-.22.85-.87,0-3.9,0-7.8,0-11.69,0-1.22,0-1.22,1.26-1.22,1.6,0,3.2,0,4.8,0,.69,0,.88-.22.87-.89,0-3.86,0-7.73,0-11.6,0-1.17,0-1.17,1.21-1.17,1.62,0,3.25,0,4.88,0,.58,0,.79-.21.79-.8q0-6.56,0-13.12h.36c.27.27.62.15.94.15h5.54l.22.17c-.3.3-.17.68-.17,1q0,13.05,0,26.1,0,20.61,0,41.23c-2,0-4,0-6,0-.66,0-.92.22-.9.89,0,1.51,0,3,0,4.53,0,1.67.2,1.47-1.42,1.47-6,0-12.08,0-18.13,0-.75,0-1,.21-1,1,0,1.54,0,3.08,0,4.62,0,1.32,0,1.32-1.37,1.32-3.77,0-7.55,0-11.32,0-.73,0-.94.21-.92.92,0,1.66,0,3.33,0,5C208.94,228.81,209.11,229.21,208.63,229.35Z"/><path class="cls-7" d="M250.09,140.48l-.22-.17c0-.06,0-.11,0-.16h6.71v.18a1.4,1.4,0,0,1-.78.17Z"/><path class="cls-8" d="M243.21,291.2l6.12,0c.21,0,.42,0,.58.15h-6.7Z"/><path class="cls-8" d="M249.91,140.15s0,.1,0,.16h-5.54c-.32,0-.67.12-.94-.15Z"/><path class="cls-9" d="M249.91,256.71h-6.8c0-1.88-.05-3.75,0-5.62,0-.9-.24-1.09-1.11-1.09-6.49,0-13,0-19.48,0h0c-.17-2-.05-4-.06-5.95,0-.61-.15-.84-.8-.84-4.24,0-8.49,0-12.74,0,0-2,0-4,0-6,0-.3.17-.71-.34-.8h-6c-.37,0-.74,0-.73-.52.06-2.08-.11-4.16.1-6.23l6.06.05c.25,0,.49,0,.56-.32l0,0c.48-.14.31-.54.31-.83,0-1.66,0-3.33,0-5,0-.71.19-.93.92-.92,3.77,0,7.55,0,11.32,0,1.36,0,1.37,0,1.37-1.32,0-1.54,0-3.08,0-4.62,0-.76.21-1,1-1,6.05,0,12.09,0,18.13,0,1.62,0,1.41.2,1.42-1.47,0-1.51,0-3,0-4.53,0-.67.24-.9.9-.89,2,0,4,0,6,0l0,0c0,.4,0,.79,0,1.18Z"/><path class="cls-6" d="M256.62,291.14v.19h-6.71c-.16-.18-.37-.15-.58-.15l-6.12,0a7.83,7.83,0,0,1-.15-2.6c0-1.14,0-2.29,0-3.44,0-.6-.21-.79-.79-.78-1.6,0-3.2,0-4.8,0-1.29,0-1.29,0-1.29-1.33,0-1.6,0-3.2,0-4.8,0-.63-.22-.88-.84-.85-1.6,0-3.2-.05-4.8.09-1.21.1-1.29,0-1.29-1.19,0-1.64,0-3.27,0-4.9,0-.61-.2-.77-.78-.76-1.72,0-3.44,0-5.16,0-.63,0-.84-.16-.82-.81,0-1.69,0-3.38,0-5.07,0-.78-.18-1.08-1-1.05-1.69.06-3.39,0-5.08,0-.64,0-.82-.2-.81-.82,0-1.75,0-3.51,0-5.26,0-.64-.2-.83-.83-.82-1.74,0-3.49,0-5.24,0-.69,0-.85-.31-.84-.94,0-2,0-4,0-6h13.77c0,2,0,3.93,0,5.89,0,.78.18,1,1,1,6.22,0,12.45,0,18.67,0a1.32,1.32,0,0,0,1-.19h6.8l0,.2c-.25.25-.57.13-.86.13-1.78,0-3.56,0-5.34,0-.48,0-.71.12-.7.66,0,1.78,0,3.56,0,5.34,0,.47.14.74.67.74,2,0,3.92.09,5.88,0,2.29-.14,4.57-.1,6.86-.05-.14.42-.5.26-.77.26-1.51,0-3,0-4.53,0s-1.23-.13-1.24,1.28v12.67c0,4,0,8.09,0,12.13,0,.78.23,1,1,.95,1.63-.05,3.26,0,4.89,0C256.05,291,256.37,290.88,256.62,291.14Z"/><path class="cls-6" d="M208.6,236.4c.51.09.34.5.34.8,0,2,0,4,0,6a1.27,1.27,0,0,0-.19,1V250h0c-2,0-4,0-6.05,0-.61,0-.86-.13-.84-.79,0-1.75,0-3.5,0-5.25,0-.66.25-.83.85-.82,1.72,0,3.44,0,5.16,0,.53,0,.75-.16.74-.72C208.6,240.44,208.61,238.42,208.6,236.4Z"/><path class="cls-10" d="M208.61,229.37c-.07.32-.31.32-.56.32l-6.06-.05c.11-.35.41-.29.67-.29Z"/><path class="cls-11" d="M250.09,140.48l5.74,0a1.4,1.4,0,0,0,.78-.17,1.63,1.63,0,0,1,.15,1.06c0,3.86,0,7.73,0,11.59,0,.82.24,1,1,1,1.63-.05,3.27.06,4.89,0,.81,0,.93.29.93,1,0,3.89,0,7.79,0,11.69,0,.77.2,1.07,1,1,1.63,0,3.26.05,4.89,0,1-.05,1.13.29,1.12,1.17-.05,3.9,0,7.79,0,11.69,0,.75.2,1,.95.94,1.69-.06,3.39,0,5.08,0,.65,0,.78.21.78.82,0,6.22,0,12.44,0,18.66,0,.92.24,1.21,1.17,1.16,1.63-.08,3.26,0,4.89,0,.64,0,.81.18.81.81,0,4,0,8,0,12,0,.68.13.94.88.91,1.75-.06,3.5,0,5.25,0,.65,0,.8.21.8.83,0,3.92.08,7.85.08,11.77,0,.79.15,1.11,1,1.07,1.6-.08,3.2,0,4.8,0,.29,0,.69-.19.84.29-2.06,0-4.11,0-6.16.05-.66,0-.82-.32-.81-.9,0-1.57,0-3.14,0-4.71s.21-1.46-1.42-1.47c-3.71,0-7.43,0-11.14,0-.81,0-1.06-.26-1-1,.05-1.6,0-3.21,0-4.81,0-.81-.18-1.08-1-1.07-6.14,0-12.27,0-18.4,0-.89,0-1.12-.26-1.09-1.12.07-1.63,0-3.26,0-4.89,0-.66-.22-.92-.89-.91-2,0-4,0-6,0l0,0q0-20.61,0-41.23,0-13.05,0-26.1C249.92,141.16,249.79,140.78,250.09,140.48Z"/><path class="cls-12" d="M249.94,208.87c2,0,4,0,6,0,.67,0,.9.25.89.91,0,1.63,0,3.26,0,4.89,0,.86.2,1.13,1.09,1.12,6.13,0,12.26,0,18.4,0,.86,0,1.07.26,1,1.07-.06,1.6,0,3.21,0,4.81,0,.78.23,1.05,1,1,3.71,0,7.43,0,11.14,0,1.63,0,1.41-.21,1.42,1.47s0,3.14,0,4.71c0,.58.15.91.81.9,2.05,0,4.1,0,6.16-.05a56.41,56.41,0,0,1,0,6.37l-5.84,0c-.3,0-.7-.15-.81.34a29.13,29.13,0,0,0-.06,6.73c-.39,0-.78.06-1.17.06q-6,0-12,0c-.49,0-.67.06-.65.62.05,1.75,0,3.5.06,5.25,0,.79-.18,1-1,1-6.46,0-12.93,0-19.39,0-.33,0-.39.13-.25.41s0,.78,0,1.17c-.06,1.71.12,3.42-.11,5.13-.29.23-.63.12-.95.12-1.91,0-3.83,0-5.74.05l0-.2V210.05C249.91,209.66,249.93,209.27,249.94,208.87Z"/><path class="cls-13" d="M291.23,236.39c.11-.49.51-.33.81-.34l5.84,0,0,.36Z"/><path class="cls-14" d="M256.62,291.14c-.25-.26-.57-.16-.86-.16-1.63,0-3.26,0-4.89,0-.74,0-1-.17-1-.95,0-4,0-8.08,0-12.13V265.24c0-1.41-.15-1.27,1.24-1.28s3,0,4.53,0c.27,0,.63.16.77-.26l.26-.06c.4-.2.25-.58.26-.88,0-1.93,0-3.86,0-5.79,6.54,0,13.09.09,19.63,0,.6,0,.78-.23.77-.8,0-1.78,0-3.56,0-5.34,0-.56.11-.79.74-.79,4.25,0,8.5,0,12.75,0l.08,6.74,0,0-6.25-.07c-.26,0-.48.05-.49.38,0,2,0,3.92,0,5.88,0,.65-.19.82-.82.81-1.75,0-3.5,0-5.25,0-.59,0-.8.19-.79.78,0,1.78,0,3.56,0,5.34,0,.64-.19.82-.82.81-1.5-.05-3,0-4.52,0s-1.45,0-1.45,1.41,0,3.08,0,4.61c0,.63-.17.85-.81.84-1.72,0-3.44,0-5.16,0-.73,0-1,.18-1,1,.06,1.65,0,3.32,0,5,0,.74-.24.92-.93.9-1.66,0-3.32,0-5,0-.73,0-1,.24-1,1,.05,1.66,0,3.32,0,5C256.76,290.57,256.86,290.89,256.62,291.14Z"/><path class="cls-14" d="M291.15,243.11a40.84,40.84,0,0,0,4.56.11,12.8,12.8,0,0,1,2.23.08c0,2,0,4,0,5.95,0,.58-.15.78-.76.77-2,0-4,0-5.95,0h0C291,247.71,291.2,245.41,291.15,243.11Z"/><path class="cls-7" d="M291,256.76l-.08-6.74.37,0h0c0,2,0,3.92,0,5.88C291.19,256.18,291.37,256.57,291,256.76Z"/><path class="cls-7" d="M284.18,257.09c0-.33.23-.38.49-.38l6.25.07c-.19.42-.57.25-.87.25C288.1,257.06,286.14,257.07,284.18,257.09Z"/><path class="cls-7" d="M257,250l-.25.41C256.61,250.16,256.67,250,257,250Z"/><path class="cls-7" d="M256.63,256.71c.25-.11.31.07.37.25,0,1.93,0,3.86,0,5.79,0,.3.14.68-.26.88,0-1.68,0-3.37,0-5.05Z"/></g></g></g></svg>