<?xml version="1.0" encoding="utf-8"?>
<!-- Generator: Adobe Illustrator 24.3.0, SVG Export Plug-In . SVG Version: 6.00 Build 0)  -->
<svg version="1.1" id="Layer_1" xmlns="http://www.w3.org/2000/svg" xmlns:xlink="http://www.w3.org/1999/xlink" x="0px" y="0px"
	 viewBox="0 0 292.09 188.64" style="enable-background:new 0 0 292.09 188.64;" xml:space="preserve">
<style type="text/css">
	.st0{fill:#232D65;}
	.st1{fill:none;stroke:#164373;stroke-width:8;stroke-miterlimit:10;}
	.st2{fill:#164373;}
	.st3{font-family:'MyriadPro-Regular';}
	.st4{font-size:112.2113px;}
	.st5{font-size:62px;}
	.st6{fill:#27386B;}
	.st7{fill:#27365A;}
	.st8{fill:#22305A;}
	.st9{opacity:0.8;fill:#B1B3B6;}
	.st10{fill:#222F52;}
	.st11{opacity:0.73;fill:#919396;}
</style>
<g>
	<polygon class="st0" points="61.38,163.67 0,101.06 27.38,19.22 114.14,0 173.52,62.61 146.14,144.45 	"/>
	<polyline class="st1" points="166.52,63.81 255.71,64.24 287.42,136.56 245.95,185.53 	"/>
	<line class="st1" x1="145.84" y1="142.2" x2="184.23" y2="185.53"/>
	<text transform="matrix(1 0 0 1 167.4445 160.5919)"><tspan x="0" y="0" class="st2 st3 st4">P</tspan><tspan x="59.7" y="0" class="st2 st3 st5">h</tspan></text>
	<circle class="st2" cx="269.3" cy="40.42" r="10.32"/>
	<polygon class="st6" points="0,101.06 86.92,82.12 61.38,163.67 	"/>
	<polygon class="st7" points="27.38,19.22 114.14,0 87.09,81.84 	"/>
	<polyline class="st8" points="61.38,163.67 87,81.84 148.31,144.74 64.36,162.99 	"/>
	<polyline class="st8" points="0,101.06 27.38,19.22 86.92,82.12 0,101.06 	"/>
	<polygon class="st9" points="70,146.35 66.2,149.84 17.64,95.88 21.44,92.71 	"/>
	<polyline class="st10" points="87.09,81.84 114.14,0 173.52,62.61 90.08,81.66 	"/>
	<polygon class="st11" points="39.43,36.48 38.47,31.4 109.25,16.49 110.51,21.25 	"/>
	<polygon class="st7" points="86.92,82.12 173.52,62.61 148.31,144.74 	"/>
</g>
</svg>
