<?xml version="1.0" encoding="utf-8"?>
<!-- Generator: Adobe Illustrator 24.3.0, SVG Export Plug-In . SVG Version: 6.00 Build 0)  -->
<svg version="1.1" id="Layer_1" xmlns="http://www.w3.org/2000/svg" xmlns:xlink="http://www.w3.org/1999/xlink" x="0px" y="0px"
	 viewBox="0 0 576 512" style="enable-background:new 0 0 576 512;" xml:space="preserve">
<style type="text/css">
	.st0{fill:#45BCEC;}
</style>
<path class="st0" d="M128,0C75,0,32,86,32,192v172.1c0,41.1-9.8,62.8-31.2,126.9C-2.6,501.3,5.1,512,16,512h280.9
	c13.8,0,26-8.8,30.4-21.9c12.8-38.5,24.7-72.4,24.7-126V192c0-83.6,23.7-153.5,60.4-192H128z M96,224c-8.8,0-16-7.2-16-16
	s7.2-16,16-16s16,7.2,16,16S104.8,224,96,224z M160,224c-8.8,0-16-7.2-16-16s7.2-16,16-16s16,7.2,16,16S168.8,224,160,224z M224,224
	c-8.8,0-16-7.2-16-16s7.2-16,16-16s16,7.2,16,16S232.8,224,224,224z M288,224c-8.8,0-16-7.2-16-16s7.2-16,16-16s16,7.2,16,16
	S296.8,224,288,224z M480,0c-53,0-96,86-96,192s43,192,96,192s96-86,96-192S533,0,480,0z M480,256c-17.7,0-32-28.6-32-64
	s14.3-64,32-64s32,28.7,32,64S497.7,256,480,256z"/>
</svg>
